<?xml version="1.0" encoding="UTF-8"?>
<svg xmlns="http://www.w3.org/2000/svg" version="1.1" viewBox="0 0 512 512">
  <!-- Generator: Adobe Illustrator 28.6.0, SVG Export Plug-In . SVG Version: 1.2.0 Build 709)  -->
  <g>
    <g id="Calque_1">
      <path d="M502.24,356.9v-61.59c-38.95,33.01-134.62,113.72-134.62,113.72l-.04-63.02.04-28.52V72.58l-131.26,110.07V4.44h-48.87v29.77C174.15,14.66,147.05,0,116.39,0,56.41,0,9.76,49.76,9.76,112.41s46.65,112.85,106.63,112.85c30.66,0,57.76-15.11,71.09-34.66v33.44l-46.99,39.79s-.03.01-.07.06c-1.33,1.05-19.61,15.58-41.33,34.12-.04.04-.07.07-.12.09-10.32,8.82-21.42,18.54-31.83,28.15-1.09,1.06-2.24,2.14-3.52,3.27-4.6,4.3-9.03,8.55-13.17,12.67-25.51,26.94-32.12,50.23-33.74,62.49-.76,8.67-.47,17.95,1.13,27.92.03.15.06.3.07.44,1.45,10.56,4.77,20.47,9.76,29.44.12.22.24.44.37.65.21.38.41.77.64,1.14,10.25,17.98,25.56,29.22,41.04,36.21,12.17,5.66,26.18,9.4,41.69,10.83,8.66.87,14.26.67,14.26.67h.06c59.54,0,110.63-33.77,110.63-111.07v-156.63c27.84-23.61,82.39-68.71,82.39-68.71v336.44l183.5-155.1ZM187.48,404.9c0,43.1-27.1,65.31-60.42,65.31-7.72,0-14.81-.74-21.28-2.25-12.13-3.18-27.05-10.64-36.39-27.97l-3.64-8.05c-1.02-2.73-1.72-5.41-2.2-8.06-.89-8.88.96-21.18,10.84-36.28,7.86-10.56,20.86-24.52,42.29-42.48.01,0,.02-.02.03-.02,0,0,0,0,0,0,56.21-47.1,60.47-50.67,60.8-50.94l.03-.02c3.28-2.77,6.61-5.58,9.95-8.42v119.19ZM125.28,180.39c-37.77,0-66.2-28.44-66.2-67.98s28.43-67.98,66.2-67.98,66.2,28.44,66.2,67.98-28.44,67.98-66.2,67.98Z"/>
    </g>
  </g>
</svg>