<svg width="48" height="48" viewBox="0 0 48 48" fill="none" xmlns="http://www.w3.org/2000/svg">
<path d="M24 4.7998C13.3968 4.7998 4.80005 13.3966 4.80005 23.9998C4.80005 32.9966 10.9952 40.5246 19.3472 42.6078C19.2576 42.3486 19.2 42.0478 19.2 41.675V38.3934C18.4208 38.3934 17.1152 38.3934 16.7872 38.3934C15.4736 38.3934 14.3056 37.8286 13.7392 36.779C13.1104 35.6126 13.0016 33.8286 11.4432 32.7374C10.9808 32.3742 11.3328 31.9598 11.8656 32.0158C12.8496 32.2942 13.6656 32.9694 14.4336 33.971C15.1984 34.9742 15.5584 35.2014 16.9872 35.2014C17.68 35.2014 18.7168 35.1614 19.6928 35.0078C20.2176 33.675 21.1248 32.4478 22.2336 31.8686C15.84 31.211 12.7888 28.0302 12.7888 23.7118C12.7888 21.8526 13.5808 20.0542 14.9264 18.539C14.4848 17.035 13.9296 13.9678 15.096 12.7998C17.9728 12.7998 19.712 14.6654 20.1296 15.1694C21.5632 14.6782 23.1376 14.3998 24.792 14.3998C26.4496 14.3998 28.0304 14.6782 29.4672 15.1726C29.88 14.6718 31.6208 12.7998 34.504 12.7998C35.6752 13.9694 35.1136 17.0494 34.6672 18.5502C36.0048 20.0622 36.792 21.8558 36.792 23.7118C36.792 28.027 33.7456 31.2062 27.3616 31.867C29.1184 32.7838 30.4 35.3598 30.4 37.3006V41.675C30.4 41.8414 30.3632 41.9614 30.344 42.1038C37.8256 39.4814 43.2 32.3774 43.2 23.9998C43.2 13.3966 34.6032 4.7998 24 4.7998Z" fill="white"/>
</svg>
