<svg width="46" height="46" viewBox="0 0 46 46" fill="none" xmlns="http://www.w3.org/2000/svg">
<path d="M37.72 3.68018H8.27999C5.74079 3.68018 3.67999 5.74098 3.67999 8.28018V37.7202C3.67999 40.2594 5.74079 42.3202 8.27999 42.3202H37.72C40.2592 42.3202 42.32 40.2594 42.32 37.7202V8.28018C42.32 5.74098 40.2592 3.68018 37.72 3.68018ZM15.64 18.4002V35.8802H10.12V18.4002H15.64ZM10.12 13.3126C10.12 12.0246 11.224 11.0402 12.88 11.0402C14.536 11.0402 15.5756 12.0246 15.64 13.3126C15.64 14.6006 14.6096 15.6402 12.88 15.6402C11.224 15.6402 10.12 14.6006 10.12 13.3126ZM35.88 35.8802H30.36C30.36 35.8802 30.36 27.361 30.36 26.6802C30.36 24.8402 29.44 23.0002 27.14 22.9634H27.0664C24.84 22.9634 23.92 24.8586 23.92 26.6802C23.92 27.5174 23.92 35.8802 23.92 35.8802H18.4V18.4002H23.92V20.7554C23.92 20.7554 25.6956 18.4002 29.2652 18.4002C32.9176 18.4002 35.88 20.9118 35.88 25.9994V35.8802Z" fill="white"/>
</svg>
