<svg width="41" height="41" viewBox="0 0 41 41" fill="none" xmlns="http://www.w3.org/2000/svg">
<path d="M20.5 1.64014C10.1007 1.64014 1.64001 10.1008 1.64001 20.5001C1.64001 28.6051 6.77943 35.5309 13.9698 38.1932C13.7627 36.3469 13.7952 33.3232 14.137 31.8593C14.457 30.4841 16.2044 23.0958 16.2044 23.0958C16.2044 23.0958 15.6769 22.0394 15.6769 20.4791C15.6769 18.0272 17.0974 16.1977 18.8665 16.1977C20.3712 16.1977 21.0967 17.3274 21.0967 18.6809C21.0967 20.1943 20.1345 22.455 19.6361 24.5503C19.2205 26.3058 20.5163 27.7372 22.2467 27.7372C25.3801 27.7372 27.7887 24.433 27.7887 19.6641C27.7887 15.4431 24.7563 12.4914 20.4254 12.4914C15.4097 12.4914 12.4655 16.254 12.4655 20.1428C12.4655 21.6576 13.0486 23.2823 13.7776 24.1665C13.9213 24.3414 13.9423 24.494 13.8996 24.6717C13.766 25.2283 13.4691 26.4259 13.41 26.6713C13.3334 26.9948 13.1544 27.0619 12.8208 26.9066C10.6184 25.8813 9.24188 22.6625 9.24188 20.0763C9.24188 14.5154 13.2819 9.40746 20.8912 9.40746C27.0075 9.40746 31.7601 13.7648 31.7601 19.5901C31.7601 25.6664 27.9284 30.556 22.6115 30.556C20.8248 30.556 19.1459 29.6277 18.5716 28.5313C18.5716 28.5313 17.6874 31.8973 17.4724 32.7225C17.1014 34.1496 15.5132 37.1062 14.7159 38.4491C16.5398 39.0383 18.4826 39.3601 20.5 39.3601C30.8998 39.3601 39.36 30.8999 39.36 20.5001C39.36 10.1008 30.8998 1.64014 20.5 1.64014Z" fill="white"/>
</svg>
